# xmcd
#
# Track frame offsets:
#	150
#	19739
#	36092
#	56428
#	72183
#	88831
#	105943
#	121419
#	131987
#	148235
#	163590
#	178692
#	198237
#	218069
#
# Disc length: 3114 seconds
#
# Revision: 1
# Processed by: cddbd v1.5.2PL0 Copyright (c) Steve Scherf et al.
# Submitted via: audiograbber 1.83.01
#
DISCID=c80c280e
DTITLE=STAR DISC - SD-0115
DYEAR=1900
DGENRE=CD+G
TTITLE0=Urban, Keith - You'll Think Of Me
TTITLE1=Keith, Toby - American Soldier
TTITLE2=Rascal Flatts - Mayberry
TTITLE3=Green, Pat - Guy Like Me, A
TTITLE4=Walker, Clay - I Can't Sleep
TTITLE5=Diamond Rio - Completley
TTITLE6=Proctor, Rachel - Didn't I
TTITLE7=Stuart, Marty - Too Much Month
TTITLE8=Vincent, Rhonda - If Heartaches Had Wings
TTITLE9=Brock, Chad - You Are
TTITLE10=Morgan, Lorrie - Do You Still Want To Buy Me That Drink
TTITLE11=Crowell, Rodney - Earthbound
TTITLE12=Herndon, Ty and Tanya - Don't Go Breaking My Heart
TTITLE13=Twain, Shania and Alison Krause - Coat Of Many Colors
EXTD=
EXTT0=
EXTT1=
EXTT2=
EXTT3=
EXTT4=
EXTT5=
EXTT6=
EXTT7=
EXTT8=
EXTT9=
EXTT10=
EXTT11=
EXTT12=
EXTT13=
PLAYORDER=
